<svg width="80" height="40" viewBox="30 0 256 256" fill="none" xmlns="http://www.w3.org/2000/svg">
  <rect width="256" height="256" rx="64" fill="#001AFF" />
  <path
    d="M70.25 144.987C70.25 136.654 70.25 132.496 72.0815 128.941C73.9048 125.393 77.2955 122.968 84.0688 118.133L118.414 93.5975C123.034 90.2975 125.36 88.6393 128 88.6393C130.64 88.6393 132.958 90.2893 137.586 93.5975L171.931 118.125C178.705 122.968 182.095 125.385 183.919 128.941C185.75 132.488 185.75 136.654 185.75 144.979V185.75C185.75 193.53 185.75 197.416 183.333 199.833C180.916 202.25 177.03 202.25 169.25 202.25H86.75C78.9703 202.25 75.0845 202.25 72.6673 199.833C70.25 197.416 70.25 193.53 70.25 185.75V144.987Z"
    fill="white" fill-opacity="0.5" />
  <path
    d="M53.75 131.193C53.75 133.387 53.75 134.493 54.443 134.831C55.136 135.169 56.0105 134.501 57.743 133.14L117.869 86.3788C122.737 82.592 125.17 80.7028 128 80.7028C130.83 80.7028 133.263 82.6003 138.131 86.3788L198.257 133.14C199.99 134.493 200.864 135.169 201.557 134.831C202.25 134.493 202.25 133.387 202.25 131.193V127.819C202.25 123.859 202.25 121.879 201.409 120.163C200.575 118.447 199.008 117.226 195.881 114.8L138.131 69.8788C133.263 66.092 130.83 64.2028 128 64.2028C125.17 64.2028 122.737 66.1003 117.869 69.8788L60.119 114.8C56.9923 117.226 55.4247 118.447 54.5915 120.163C53.75 121.879 53.75 123.859 53.75 127.819V131.193ZM132.125 152.75H123.875C119.499 152.75 115.302 154.488 112.208 157.583C109.113 160.677 107.375 164.874 107.375 169.25V201.013C107.375 201.697 107.928 202.25 108.612 202.25H147.388C147.716 202.25 148.03 202.12 148.263 201.888C148.495 201.655 148.625 201.341 148.625 201.013V169.25C148.625 164.874 146.887 160.677 143.792 157.583C140.698 154.488 136.501 152.75 132.125 152.75Z"
    fill="white" />
  <path
    d="M173.375 70.25H165.125C162.847 70.25 161 72.0968 161 74.375V99.125C161 101.403 162.847 103.25 165.125 103.25H173.375C175.653 103.25 177.5 101.403 177.5 99.125V74.375C177.5 72.0968 175.653 70.25 173.375 70.25Z"
    fill="white" />
</svg>
